# xmcd
#
# Track frame offsets:
#	150
#	17682
#	33290
#	51745
#	66790
#	81000
#	99345
#	116582
#	132925
#	147565
#	165012
#	181142
#	191762
#	206765
#	224152
#	240460
#	253490
#
# Disc length: 3599
#
# Revision: 1
# Processed by: cddbd v1.5.1PL0 Copyright (c) Steve Scherf et al.
# Submitted via: ExactAudioCopy v0.95a4
# Normalized: r0:TDELIM( - )
#
DISCID=fb0e0d11
DTITLE=Various Artist - Super Country '89
DYEAR=1989
DGENRE=Country
TTITLE0=Dan Seals - Big Wheels In The Moonlight
TTITLE1=Tanya Tucker - Highway Robbery
TTITLE2=Steve Wariner - Hold On A Little Longer
TTITLE3=Patty Loveless - Blue Side Of Town
TTITLE4=Nitty Gritty Dirt Band - Down The Road Tonight
TTITLE5=Michael Johnson - That's That
TTITLE6=Dwight Yoakam - I Sang Dixie
TTITLE7=Highway 101 - All The Reasons Why
TTITLE8=Emmylou Harris - Heartbreak Hill
TTITLE9=Earl Thomas Conley - What I'd Say
TTITLE10=Eddie Rabbitt - We Must Be Doin' Somthin' Right
TTITLE11=George Strait - If You Ain't Lovin' You Ain't Livin'
TTITLE12=Reba McEntire - I Know How He Feels
TTITLE13=Eddy Raven - Joe Knows How To Live
TTITLE14=Billy Parker - She's Sittin Pretty
TTITLE15=Baillie And The Boys - Long Shot
TTITLE16=Keith Whitley - When You Say Nothing At All
EXTD=
EXTT0=
EXTT1=
EXTT2=
EXTT3=
EXTT4=
EXTT5=
EXTT6=
EXTT7=
EXTT8=
EXTT9=
EXTT10=
EXTT11=
EXTT12=
EXTT13=
EXTT14=
EXTT15=
EXTT16=
PLAYORDER=
